<svg xmlns="http://www.w3.org/2000/svg" viewBox="0 0 32 32">
  <rect width="32" height="32" rx="3" fill="#f4edd8"/>
  <line x1="0" y1="11" x2="32" y2="11" stroke="#c4aa7e" stroke-width=".5" opacity=".5"/>
  <line x1="0" y1="17" x2="32" y2="17" stroke="#c4aa7e" stroke-width=".5" opacity=".5"/>
  <line x1="0" y1="23" x2="32" y2="23" stroke="#c4aa7e" stroke-width=".5" opacity=".5"/>
  <line x1="5"  y1="8"  x2="5"  y2="24" stroke="#1a1108" stroke-width="2.2" stroke-linecap="round"/>
  <path d="M5 16.5 Q7.5 14 10 16.5" fill="none" stroke="#1a1108" stroke-width="2.2" stroke-linecap="round"/>
  <line x1="10" y1="16.5" x2="10" y2="24" stroke="#1a1108" stroke-width="2.2" stroke-linecap="round"/>
  <path d="M16.5 11 Q14 11 14 17 Q14 22 17 22 Q20 22 20 18.5 Q20 15 17 15 Q14.5 15 14.2 17.5" fill="none" stroke="#1a1108" stroke-width="2" stroke-linecap="round"/>
  <line x1="22" y1="15" x2="22" y2="24" stroke="#1a1108" stroke-width="2.2" stroke-linecap="round"/>
  <path d="M22 16 Q25 13.5 28 16 L28 24" fill="none" stroke="#1a1108" stroke-width="2.2" stroke-linecap="round" stroke-linejoin="round"/>
</svg>
